# xmcd
#
# Track frame offsets: 
#        150
#        10172
#        26026
#        39838
#        55232
#        74235
#        90073
#        105964
#        120049
#        139147
#        152429
#        168257
#        180046
#
# Disc length: 2574 seconds
#
# Revision: 0
# Processed by: cddbd v1.5.2PL0 Copyright (c) Steve Scherf et al.
# Submitted via: ExactAudioCopyFreeDBPlugin 1.0
#
DISCID=890a0c0d
DTITLE=Klaus Mehlig - Du Schaust Mich An
DYEAR=2004
DGENRE=Folk
TTITLE0=Du Schaust Mich An
TTITLE1=Instrumental
TTITLE2=Falling In Love With You
TTITLE3=Zwickts Mi
TTITLE4=Samba Pa Ti
TTITLE5=You Got It
TTITLE6=Weil Du Bei Ihm Bist
TTITLE7=Hang On Sloppy
TTITLE8=Der Einsame Hirte
TTITLE9=Suspicious Minds
TTITLE10=If Tomorrow Never Comes
TTITLE11=Frilaz Des Hoast Freilassing
TTITLE12=Take Good Care
EXTD=
EXTT0=
EXTT1=
EXTT2=
EXTT3=
EXTT4=
EXTT5=
EXTT6=
EXTT7=
EXTT8=
EXTT9=
EXTT10=
EXTT11=
EXTT12=
PLAYORDER=
